# File created by Blade
# Date/Time:  Wed Apr 08 16:19:59 2015
# Frame Rate: 120.000 fps
#------------------------------------------------------
:FULLY-SPECIFIED
:DEGREES
1019
root -22.064972 7.875577 -0.026157 357.004012 -85.520885 -465.791122
Spine 8.898785 -6.547907 -1.546569
Head 32.374266 -5.508813 -2.438641
LeftShoulder -3.899269 11.224144 32.754777
LeftArm 123.244671 -28.562997 -140.631133
LeftForeArm 7.559524 -0.000000 139.308055
LeftHand 19.286837 0.000000 81.894717
LeftHandThumb1 -26.253704 0.000000 33.147579
RightShoulder -6.143000 28.339397 -35.719580
RightArm 76.343191 55.422889 127.009810
RightForeArm 4.462118 -0.000000 145.626744
RightHand 28.744423 -0.000000 -80.303717
RightHandThumb1 -24.326973 -0.000000 -32.862282
LeftUpLeg -19.153891 -15.656890 15.379565
LeftLeg 130.867324 -0.000000 -0.000000
LeftFoot -15.597771 -26.018070 -17.911471
LeftToeBase -19.212344 -0.000000 0.000000
RightUpLeg -15.956828 0.688402 -8.436505
RightLeg 130.442547 -0.000000 -0.000000
RightFoot -19.727739 4.965573 10.115305
RightToeBase -12.700716 -0.000000 0.000000
1020
root -22.058604 8.148685 -0.039368 357.864983 -85.443438 -466.850262
Spine 8.140652 -6.636620 -1.529416
Head 33.149921 -5.517759 -2.425845
LeftShoulder -3.815740 11.453588 32.990181
LeftArm 122.856703 -28.570887 -140.337852
LeftForeArm 7.484149 -0.000000 139.001310
LeftHand 19.610874 -0.000000 82.065836
LeftHandThumb1 -26.253704 0.000000 33.147579
RightShoulder -6.095886 28.238264 -35.883551
RightArm 76.314930 55.216287 126.836116
RightForeArm 4.082164 -0.000000 145.194998
RightHand 28.575205 -0.000000 -80.821027
RightHandThumb1 -24.326973 -0.000000 -32.862282
LeftUpLeg -17.667557 -15.715121 15.369959
LeftLeg 130.435586 -0.000000 -0.000000
LeftFoot -16.576982 -26.081753 -17.898995
LeftToeBase -19.021222 -0.000000 0.000000
RightUpLeg -14.482172 0.530788 -8.330517
RightLeg 129.974449 -0.000000 -0.000000
RightFoot -20.674574 4.941044 10.194454
RightToeBase -12.509122 -0.000000 0.000000
1021
root -22.050824 8.426881 -0.054481 359.297444 -85.369232 -468.490902
Spine 7.392844 -6.674619 -1.447647
Head 33.769701 -5.545144 -2.395334
LeftShoulder -3.719039 11.591346 33.199985
LeftArm 122.436899 -28.619754 -139.973252
LeftForeArm 7.557251 -0.000000 138.694403
LeftHand 19.632893 -0.000000 82.332104
LeftHandThumb1 -26.253704 0.000000 33.147579
RightShoulder -6.111551 28.162599 -36.067059
RightArm 76.263460 55.008672 126.653114
RightForeArm 3.742997 -0.000000 144.730657
RightHand 28.411106 0.000000 -81.681933
RightHandThumb1 -24.326973 -0.000000 -32.862282
LeftUpLeg -16.187808 -15.778230 15.428402
LeftLeg 129.974886 -0.000000 -0.000000
LeftFoot -17.296886 -26.191085 -17.809327
LeftToeBase -19.143895 -0.000000 0.000000
RightUpLeg -12.978137 0.400522 -8.144808
RightLeg 129.450969 -0.000000 -0.000000
RightFoot -21.617334 4.897088 10.176807
RightToeBase -12.275423 -0.000000 0.000000
1022
root -22.044572 8.710222 -0.071642 360.431197 -85.286635 -469.815439
Spine 6.619658 -6.693391 -1.393960
Head 34.284392 -5.576715 -2.308226
LeftShoulder -3.607747 11.677793 33.406033
LeftArm 122.014434 -28.699309 -139.580672
LeftForeArm 7.575700 -0.000000 138.335127
LeftHand 19.652144 -0.000000 82.617393
LeftHandThumb1 -26.253704 0.000000 33.147579
RightShoulder -6.125907 27.996289 -36.296705
RightArm 76.370272 54.814777 126.698840
RightForeArm 3.482859 -0.000000 144.310071
RightHand 28.317572 -0.000000 -82.089574
RightHandThumb1 -24.326973 -0.000000 -32.862282
LeftUpLeg -14.673817 -15.803376 15.463468
LeftLeg 129.396364 -0.000000 -0.000000
LeftFoot -18.116272 -26.414806 -17.876354
LeftToeBase -18.866128 -0.000000 0.000000
RightUpLeg -11.479311 0.237203 -7.980427
RightLeg 128.891868 -0.000000 -0.000000
RightFoot -22.472301 4.880056 10.079670
RightToeBase -12.056623 -0.000000 0.000000
1023
root -22.046986 8.998332 -0.089751 361.725535 -85.194809 -471.302245
Spine 5.842146 -6.737114 -1.335859
Head 34.595295 -5.643585 -2.205519
LeftShoulder -3.400396 11.511064 33.667007
LeftArm 121.587940 -29.041120 -139.258785
LeftForeArm 7.347487 -0.000000 137.960890
LeftHand 19.790391 -0.000000 82.954821
LeftHandThumb1 -26.253704 0.000000 33.147579
RightShoulder -6.080159 27.865865 -36.457423
RightArm 76.451793 54.623165 126.632324
RightForeArm 3.287676 -0.000000 143.820861
RightHand 28.300480 0.000000 -82.479720
RightHandThumb1 -24.326973 -0.000000 -32.862282
LeftUpLeg -13.176663 -15.869559 15.551033
LeftLeg 128.821853 -0.000000 -0.000000
LeftFoot -18.787476 -26.781826 -17.834287
LeftToeBase -18.778678 -0.000000 0.000000
RightUpLeg -9.974072 0.060788 -7.811149
RightLeg 128.308290 -0.000000 -0.000000
RightFoot -23.216577 4.921454 9.967894
RightToeBase -12.142715 -0.000000 0.000000
1024
root -22.054959 9.290104 -0.107208 363.515310 -85.111824 -473.277147
Spine 5.054996 -6.766062 -1.218358
Head 34.767820 -5.688246 -2.085606
LeftShoulder -3.255246 11.269614 33.915859
LeftArm 121.018951 -29.421556 -138.768417
LeftForeArm 7.359565 -0.000000 137.469346
LeftHand 19.855022 0.000000 83.298602
LeftHandThumb1 -26.253704 0.000000 33.147579
RightShoulder -6.026383 27.678943 -36.640160
RightArm 76.663409 54.436444 126.719773
RightForeArm 3.095131 -0.000000 143.285602
RightHand 28.234703 -0.000000 -82.923404
RightHandThumb1 -24.326973 -0.000000 -32.862282
LeftUpLeg -11.679376 -15.940833 15.707868
LeftLeg 128.225374 -0.000000 -0.000000
LeftFoot -19.356425 -27.327604 -17.895558
LeftToeBase -18.660634 -0.000000 0.000000
RightUpLeg -8.485628 -0.131544 -7.605898
RightLeg 127.695376 -0.000000 -0.000000
RightFoot -23.867206 4.924114 9.828639
RightToeBase -12.338416 -0.000000 0.000000
1025
root -22.065909 9.587406 -0.125874 365.675163 -85.021506 -475.594376
Spine 4.243185 -6.822458 -1.082170
Head 34.808005 -5.770813 -1.929574
LeftShoulder -3.170426 11.056867 34.168735
LeftArm 120.439631 -29.803747 -138.262526
LeftForeArm 7.357517 -0.000000 136.937976
LeftHand 19.924260 -0.000000 83.632537
LeftHandThumb1 -26.253704 0.000000 33.147579
RightShoulder -5.928802 27.573522 -36.722960
RightArm 76.766157 54.284208 126.635988
RightForeArm 2.939230 -0.000000 142.664367
RightHand 28.418311 -0.000000 -82.833444
RightHandThumb1 -24.326973 -0.000000 -32.862282
LeftUpLeg -10.209772 -15.987710 15.930731
LeftLeg 127.613154 -0.000000 -0.000000
LeftFoot -19.915727 -27.819739 -17.856531
LeftToeBase -18.760830 -0.000000 0.000000
RightUpLeg -7.018544 -0.325395 -7.375053
RightLeg 127.045818 -0.000000 -0.000000
RightFoot -24.477712 4.960301 9.715592
RightToeBase -12.470470 -0.000000 0.000000
